<svg width="360" height="640" viewBox="0 0 360 640" fill="none" xmlns="http://www.w3.org/2000/svg">
  <rect width="360" height="640" fill="white" />
  <path d="M0 0H360V640H0V0Z" fill="#EAEAEA" />
  <path d="M0 598.549H335C348.807 598.549 360 609.742 360 623.549V640H0V598.549Z" fill="#5A899C" />
  <path d="M0 0H360V145.078H25C11.1929 145.078 0 133.885 0 120.078V0Z" fill="#5A899C" />
  <rect x="20" y="120.207" width="175" height="0.829016" fill="white" fill-opacity="0.5" />
  <path
    d="M25.125 80.4152V82.8527H24.8672C24.6693 82.0871 24.4141 81.5662 24.1016 81.2902C23.7943 81.0141 23.401 80.8761 22.9219 80.8761C22.5573 80.8761 22.263 80.9725 22.0391 81.1652C21.8151 81.3579 21.7031 81.5714 21.7031 81.8058C21.7031 82.0975 21.7865 82.3475 21.9531 82.5558C22.1146 82.7694 22.4427 82.9959 22.9375 83.2355L24.0781 83.7902C25.1354 84.3058 25.6641 84.9855 25.6641 85.8293C25.6641 86.4803 25.4167 87.0063 24.9219 87.4074C24.4323 87.8032 23.8828 88.0011 23.2734 88.0011C22.8359 88.0011 22.3359 87.923 21.7734 87.7668C21.6016 87.7147 21.4609 87.6886 21.3516 87.6886C21.2318 87.6886 21.138 87.7563 21.0703 87.8918H20.8125V85.3371H21.0703C21.2161 86.0662 21.4948 86.6157 21.9062 86.9855C22.3177 87.3553 22.7786 87.5402 23.2891 87.5402C23.6484 87.5402 23.9401 87.436 24.1641 87.2277C24.3932 87.0141 24.5078 86.7589 24.5078 86.4621C24.5078 86.1027 24.3802 85.8006 24.125 85.5558C23.875 85.311 23.3724 85.0011 22.6172 84.6261C21.862 84.2511 21.3672 83.9126 21.1328 83.6105C20.8984 83.3136 20.7812 82.9386 20.7812 82.4855C20.7812 81.897 20.9818 81.4048 21.3828 81.0089C21.7891 80.6131 22.3125 80.4152 22.9531 80.4152C23.2344 80.4152 23.5755 80.4751 23.9766 80.5949C24.2422 80.673 24.4193 80.7121 24.5078 80.7121C24.5911 80.7121 24.6562 80.6938 24.7031 80.6574C24.75 80.6209 24.8047 80.5402 24.8672 80.4152H25.125ZM27.9375 83.3214C27.9323 84.3839 28.1901 85.2173 28.7109 85.8214C29.2318 86.4256 29.8438 86.7277 30.5469 86.7277C31.0156 86.7277 31.4219 86.6001 31.7656 86.3449C32.1146 86.0845 32.4062 85.6418 32.6406 85.0168L32.8828 85.173C32.7734 85.8865 32.4557 86.5376 31.9297 87.1261C31.4036 87.7095 30.7448 88.0011 29.9531 88.0011C29.0938 88.0011 28.3568 87.6678 27.7422 87.0011C27.1328 86.3293 26.8281 85.4282 26.8281 84.298C26.8281 83.074 27.1406 82.1209 27.7656 81.4386C28.3958 80.7511 29.1849 80.4074 30.1328 80.4074C30.9349 80.4074 31.5938 80.673 32.1094 81.2043C32.625 81.7303 32.8828 82.436 32.8828 83.3214H27.9375ZM27.9375 82.8683H31.25C31.224 82.41 31.1693 82.0871 31.0859 81.8996C30.9557 81.6079 30.7604 81.3787 30.5 81.2121C30.2448 81.0454 29.9766 80.9621 29.6953 80.9621C29.263 80.9621 28.875 81.1313 28.5312 81.4699C28.1927 81.8032 27.9948 82.2694 27.9375 82.8683ZM37.8984 86.7511C37.1641 87.3188 36.7031 87.647 36.5156 87.7355C36.2344 87.8657 35.9349 87.9308 35.6172 87.9308C35.1224 87.9308 34.7135 87.7615 34.3906 87.423C34.0729 87.0845 33.9141 86.6391 33.9141 86.0871C33.9141 85.7381 33.9922 85.436 34.1484 85.1808C34.362 84.8266 34.7318 84.4933 35.2578 84.1808C35.7891 83.8683 36.6693 83.4881 37.8984 83.0402V82.7589C37.8984 82.0454 37.7839 81.5558 37.5547 81.2902C37.3307 81.0246 37.0026 80.8918 36.5703 80.8918C36.2422 80.8918 35.9818 80.9803 35.7891 81.1574C35.5911 81.3345 35.4922 81.5376 35.4922 81.7668L35.5078 82.2199C35.5078 82.4595 35.4453 82.6444 35.3203 82.7746C35.2005 82.9048 35.0417 82.9699 34.8438 82.9699C34.651 82.9699 34.4922 82.9022 34.3672 82.7668C34.2474 82.6313 34.1875 82.4464 34.1875 82.2121C34.1875 81.7641 34.4167 81.3527 34.875 80.9777C35.3333 80.6027 35.9766 80.4152 36.8047 80.4152C37.4401 80.4152 37.9609 80.522 38.3672 80.7355C38.6745 80.897 38.901 81.1496 39.0469 81.4933C39.1406 81.7173 39.1875 82.1756 39.1875 82.8683V85.298C39.1875 85.9803 39.2005 86.3996 39.2266 86.5558C39.2526 86.7069 39.2943 86.8084 39.3516 86.8605C39.4141 86.9126 39.4844 86.9386 39.5625 86.9386C39.6458 86.9386 39.7188 86.9204 39.7812 86.8839C39.8906 86.8162 40.1016 86.6261 40.4141 86.3136V86.7511C39.8307 87.5324 39.2734 87.923 38.7422 87.923C38.487 87.923 38.2839 87.8345 38.1328 87.6574C37.9818 87.4803 37.9036 87.1782 37.8984 86.7511ZM37.8984 86.2433V83.5168C37.112 83.8293 36.6042 84.0506 36.375 84.1808C35.9635 84.41 35.6693 84.6496 35.4922 84.8996C35.3151 85.1496 35.2266 85.423 35.2266 85.7199C35.2266 86.0949 35.3385 86.4074 35.5625 86.6574C35.7865 86.9022 36.0443 87.0246 36.3359 87.0246C36.7318 87.0246 37.2526 86.7641 37.8984 86.2433ZM43.0469 80.4152V82.0246C43.6458 80.9516 44.2604 80.4152 44.8906 80.4152C45.1771 80.4152 45.4141 80.5037 45.6016 80.6808C45.7891 80.8527 45.8828 81.0532 45.8828 81.2824C45.8828 81.4855 45.8151 81.6574 45.6797 81.798C45.5443 81.9386 45.3828 82.0089 45.1953 82.0089C45.013 82.0089 44.8073 81.9204 44.5781 81.7433C44.3542 81.561 44.1875 81.4699 44.0781 81.4699C43.9844 81.4699 43.8828 81.522 43.7734 81.6261C43.5391 81.8397 43.2969 82.1912 43.0469 82.6808V86.1105C43.0469 86.5063 43.0964 86.8058 43.1953 87.0089C43.263 87.1496 43.3828 87.2668 43.5547 87.3605C43.7266 87.4543 43.974 87.5011 44.2969 87.5011V87.7824H40.6328V87.5011C40.9974 87.5011 41.2682 87.4438 41.4453 87.3293C41.5755 87.2459 41.6667 87.1131 41.7188 86.9308C41.7448 86.8423 41.7578 86.5897 41.7578 86.173V83.3996C41.7578 82.5662 41.7396 82.0714 41.7031 81.9152C41.6719 81.7537 41.6094 81.6365 41.5156 81.5636C41.4271 81.4907 41.3151 81.4543 41.1797 81.4543C41.0182 81.4543 40.8359 81.4933 40.6328 81.5714L40.5547 81.2902L42.7188 80.4152H43.0469ZM52.3594 85.0636C52.1667 86.0063 51.7891 86.7329 51.2266 87.2433C50.6641 87.7485 50.0417 88.0011 49.3594 88.0011C48.5469 88.0011 47.8385 87.66 47.2344 86.9777C46.6302 86.2954 46.3281 85.3735 46.3281 84.2121C46.3281 83.0871 46.6615 82.173 47.3281 81.4699C48 80.7668 48.8047 80.4152 49.7422 80.4152C50.4453 80.4152 51.0234 80.6027 51.4766 80.9777C51.9297 81.3475 52.1562 81.7329 52.1562 82.1339C52.1562 82.3319 52.0911 82.4933 51.9609 82.6183C51.8359 82.7381 51.6589 82.798 51.4297 82.798C51.1224 82.798 50.8906 82.699 50.7344 82.5011C50.6458 82.3918 50.5859 82.1834 50.5547 81.8761C50.5286 81.5688 50.4245 81.3345 50.2422 81.173C50.0599 81.0168 49.8073 80.9386 49.4844 80.9386C48.9635 80.9386 48.5443 81.1313 48.2266 81.5168C47.8047 82.0272 47.5938 82.7016 47.5938 83.5402C47.5938 84.3944 47.8021 85.1496 48.2188 85.8058C48.6406 86.4569 49.2083 86.7824 49.9219 86.7824C50.4323 86.7824 50.8906 86.6079 51.2969 86.2589C51.5833 86.0194 51.862 85.5845 52.1328 84.9543L52.3594 85.0636ZM55.4922 76.673V81.9074C56.0703 81.272 56.5286 80.8657 56.8672 80.6886C57.2057 80.5063 57.5443 80.4152 57.8828 80.4152C58.2891 80.4152 58.638 80.5272 58.9297 80.7511C59.2214 80.9751 59.4375 81.3266 59.5781 81.8058C59.6771 82.1391 59.7266 82.7485 59.7266 83.6339V86.1652C59.7266 86.6183 59.763 86.9282 59.8359 87.0949C59.888 87.2199 59.9766 87.3188 60.1016 87.3918C60.2266 87.4647 60.4557 87.5011 60.7891 87.5011V87.7824H57.2734V87.5011H57.4375C57.7708 87.5011 58.0026 87.4516 58.1328 87.3527C58.263 87.2485 58.3542 87.0975 58.4062 86.8996C58.4219 86.8162 58.4297 86.5714 58.4297 86.1652V83.6339C58.4297 82.8527 58.388 82.3397 58.3047 82.0949C58.2266 81.8501 58.099 81.6678 57.9219 81.548C57.7448 81.423 57.5312 81.3605 57.2812 81.3605C57.026 81.3605 56.7604 81.4282 56.4844 81.5636C56.2083 81.699 55.8776 81.9725 55.4922 82.3839V86.1652C55.4922 86.6548 55.5182 86.9595 55.5703 87.0793C55.6276 87.199 55.7292 87.3006 55.875 87.3839C56.026 87.4621 56.2839 87.5011 56.6484 87.5011V87.7824H53.1016V87.5011C53.4193 87.5011 53.6693 87.4516 53.8516 87.3527C53.9557 87.3006 54.0391 87.2016 54.1016 87.0558C54.1641 86.91 54.1953 86.6131 54.1953 86.1652V79.6886C54.1953 78.8709 54.1745 78.3683 54.1328 78.1808C54.0964 77.9933 54.0365 77.8657 53.9531 77.798C53.875 77.7303 53.7682 77.6964 53.6328 77.6964C53.5234 77.6964 53.3464 77.7381 53.1016 77.8214L52.9922 77.548L55.1328 76.673H55.4922Z"
    fill="white" fill-opacity="0.75" />
  <rect x="272" y="171.744" width="50.5709" height="0.690846" fill="#D2D2D2" />
  <path
    d="M285.862 159.696L286.118 162.831H285.862C285.603 162.05 285.269 161.461 284.858 161.066C284.268 160.495 283.508 160.209 282.581 160.209C281.316 160.209 280.354 160.709 279.695 161.71C279.143 162.555 278.867 163.561 278.867 164.728C278.867 165.675 279.05 166.539 279.417 167.321C279.783 168.102 280.261 168.676 280.852 169.042C281.448 169.403 282.058 169.584 282.683 169.584C283.049 169.584 283.403 169.538 283.745 169.445C284.087 169.352 284.417 169.215 284.734 169.035V166.164C284.734 165.665 284.695 165.341 284.617 165.189C284.543 165.033 284.426 164.916 284.265 164.838C284.109 164.755 283.831 164.713 283.43 164.713V164.435H287.275V164.713H287.092C286.711 164.713 286.45 164.84 286.309 165.094C286.211 165.275 286.162 165.631 286.162 166.164V169.203C285.601 169.506 285.046 169.728 284.5 169.87C283.953 170.011 283.345 170.082 282.676 170.082C280.757 170.082 279.299 169.467 278.303 168.236C277.556 167.313 277.183 166.249 277.183 165.043C277.183 164.169 277.393 163.331 277.812 162.531C278.311 161.579 278.994 160.846 279.863 160.333C280.591 159.909 281.45 159.696 282.441 159.696C282.803 159.696 283.13 159.726 283.423 159.784C283.721 159.843 284.141 159.972 284.683 160.172C284.956 160.275 285.139 160.326 285.232 160.326C285.325 160.326 285.403 160.285 285.466 160.202C285.535 160.114 285.576 159.945 285.591 159.696H285.862ZM291.765 168.888C291.077 169.42 290.645 169.728 290.469 169.811C290.205 169.933 289.924 169.994 289.626 169.994C289.163 169.994 288.779 169.835 288.477 169.518C288.179 169.201 288.03 168.783 288.03 168.266C288.03 167.938 288.103 167.655 288.25 167.416C288.45 167.084 288.796 166.771 289.29 166.478C289.788 166.185 290.613 165.829 291.765 165.409V165.145C291.765 164.477 291.658 164.018 291.443 163.768C291.233 163.519 290.925 163.395 290.52 163.395C290.212 163.395 289.968 163.478 289.788 163.644C289.602 163.81 289.509 164 289.509 164.215L289.524 164.64C289.524 164.865 289.465 165.038 289.348 165.16C289.236 165.282 289.087 165.343 288.901 165.343C288.721 165.343 288.572 165.28 288.455 165.153C288.342 165.026 288.286 164.852 288.286 164.633C288.286 164.213 288.501 163.827 288.931 163.476C289.36 163.124 289.963 162.948 290.74 162.948C291.335 162.948 291.824 163.048 292.205 163.248C292.493 163.4 292.705 163.637 292.842 163.959C292.93 164.169 292.974 164.599 292.974 165.248V167.526C292.974 168.165 292.986 168.559 293.01 168.705C293.035 168.847 293.074 168.942 293.127 168.991C293.186 169.039 293.252 169.064 293.325 169.064C293.403 169.064 293.472 169.047 293.53 169.013C293.633 168.949 293.831 168.771 294.124 168.478V168.888C293.577 169.621 293.054 169.987 292.556 169.987C292.317 169.987 292.126 169.904 291.985 169.738C291.843 169.572 291.77 169.289 291.765 168.888ZM291.765 168.412V165.856C291.028 166.149 290.552 166.356 290.337 166.478C289.951 166.693 289.675 166.918 289.509 167.152C289.343 167.387 289.26 167.643 289.26 167.921C289.26 168.273 289.365 168.566 289.575 168.8C289.785 169.03 290.027 169.144 290.3 169.144C290.671 169.144 291.16 168.9 291.765 168.412ZM296.621 164.376C297.109 163.888 297.397 163.607 297.485 163.534C297.705 163.349 297.942 163.205 298.196 163.102C298.45 162.999 298.701 162.948 298.95 162.948C299.37 162.948 299.731 163.07 300.034 163.314C300.337 163.559 300.54 163.913 300.642 164.376C301.145 163.79 301.57 163.407 301.917 163.227C302.263 163.041 302.62 162.948 302.986 162.948C303.342 162.948 303.657 163.041 303.931 163.227C304.209 163.407 304.429 163.705 304.59 164.12C304.697 164.403 304.751 164.848 304.751 165.453V168.339C304.751 168.759 304.783 169.047 304.846 169.203C304.895 169.31 304.985 169.403 305.117 169.481C305.249 169.555 305.464 169.591 305.762 169.591V169.855H302.451V169.591H302.59C302.878 169.591 303.103 169.535 303.264 169.423C303.376 169.345 303.457 169.22 303.506 169.049C303.525 168.966 303.535 168.729 303.535 168.339V165.453C303.535 164.906 303.469 164.52 303.337 164.296C303.147 163.983 302.842 163.827 302.422 163.827C302.163 163.827 301.902 163.893 301.638 164.025C301.379 164.152 301.064 164.391 300.693 164.743L300.679 164.823L300.693 165.138V168.339C300.693 168.798 300.718 169.083 300.767 169.196C300.82 169.308 300.918 169.403 301.06 169.481C301.201 169.555 301.443 169.591 301.785 169.591V169.855H298.394V169.591C298.765 169.591 299.019 169.547 299.155 169.459C299.297 169.372 299.395 169.24 299.448 169.064C299.473 168.981 299.485 168.739 299.485 168.339V165.453C299.485 164.906 299.404 164.513 299.243 164.274C299.028 163.961 298.728 163.805 298.342 163.805C298.079 163.805 297.817 163.876 297.559 164.018C297.153 164.232 296.841 164.474 296.621 164.743V168.339C296.621 168.778 296.65 169.064 296.709 169.196C296.772 169.328 296.863 169.428 296.98 169.496C297.102 169.56 297.346 169.591 297.712 169.591V169.855H294.395V169.591C294.702 169.591 294.917 169.56 295.039 169.496C295.161 169.428 295.254 169.323 295.317 169.181C295.381 169.035 295.413 168.754 295.413 168.339V165.775C295.413 165.038 295.391 164.562 295.347 164.347C295.312 164.186 295.259 164.076 295.186 164.018C295.112 163.954 295.012 163.922 294.885 163.922C294.749 163.922 294.585 163.959 294.395 164.032L294.285 163.768L296.306 162.948H296.621V164.376ZM307.432 165.673C307.427 166.669 307.668 167.45 308.157 168.017C308.645 168.583 309.219 168.866 309.878 168.866C310.317 168.866 310.698 168.747 311.021 168.507C311.348 168.263 311.621 167.848 311.841 167.262L312.068 167.409C311.965 168.078 311.667 168.688 311.174 169.24C310.681 169.787 310.063 170.06 309.321 170.06C308.516 170.06 307.825 169.747 307.249 169.122C306.677 168.493 306.392 167.648 306.392 166.588C306.392 165.441 306.685 164.547 307.271 163.908C307.861 163.263 308.601 162.941 309.49 162.941C310.242 162.941 310.859 163.19 311.343 163.688C311.826 164.181 312.068 164.843 312.068 165.673H307.432ZM307.432 165.248H310.537C310.513 164.818 310.461 164.516 310.383 164.34C310.261 164.066 310.078 163.852 309.834 163.695C309.595 163.539 309.343 163.461 309.08 163.461C308.674 163.461 308.311 163.62 307.988 163.937C307.671 164.249 307.485 164.686 307.432 165.248ZM317.305 162.948V165.233H317.063C316.877 164.516 316.638 164.027 316.345 163.768C316.057 163.51 315.688 163.38 315.239 163.38C314.897 163.38 314.622 163.471 314.412 163.651C314.202 163.832 314.097 164.032 314.097 164.252C314.097 164.525 314.175 164.76 314.331 164.955C314.482 165.155 314.79 165.368 315.254 165.592L316.323 166.112C317.314 166.596 317.81 167.233 317.81 168.024C317.81 168.634 317.578 169.127 317.114 169.503C316.655 169.874 316.14 170.06 315.569 170.06C315.159 170.06 314.69 169.987 314.163 169.84C314.001 169.791 313.87 169.767 313.767 169.767C313.655 169.767 313.567 169.831 313.503 169.957H313.262V167.562H313.503C313.64 168.246 313.901 168.761 314.287 169.108C314.673 169.455 315.105 169.628 315.583 169.628C315.92 169.628 316.194 169.53 316.404 169.335C316.619 169.135 316.726 168.895 316.726 168.617C316.726 168.28 316.606 167.997 316.367 167.768C316.133 167.538 315.662 167.247 314.954 166.896C314.246 166.544 313.782 166.227 313.562 165.944C313.342 165.665 313.232 165.314 313.232 164.889C313.232 164.337 313.42 163.876 313.796 163.505C314.177 163.134 314.668 162.948 315.269 162.948C315.532 162.948 315.852 163.004 316.228 163.117C316.477 163.19 316.643 163.227 316.726 163.227C316.804 163.227 316.865 163.209 316.909 163.175C316.953 163.141 317.004 163.065 317.063 162.948H317.305Z"
    fill="black" />
  <rect x="194" y="171.744" width="50.5709" height="0.690846" fill="#D2D2D2" />
  <path
    d="M207.862 159.696L208.118 162.831H207.862C207.603 162.05 207.269 161.461 206.858 161.066C206.268 160.495 205.508 160.209 204.581 160.209C203.316 160.209 202.354 160.709 201.695 161.71C201.143 162.555 200.867 163.561 200.867 164.728C200.867 165.675 201.05 166.539 201.417 167.321C201.783 168.102 202.261 168.676 202.852 169.042C203.448 169.403 204.058 169.584 204.683 169.584C205.049 169.584 205.403 169.538 205.745 169.445C206.087 169.352 206.417 169.215 206.734 169.035V166.164C206.734 165.665 206.695 165.341 206.617 165.189C206.543 165.033 206.426 164.916 206.265 164.838C206.109 164.755 205.831 164.713 205.43 164.713V164.435H209.275V164.713H209.092C208.711 164.713 208.45 164.84 208.309 165.094C208.211 165.275 208.162 165.631 208.162 166.164V169.203C207.601 169.506 207.046 169.728 206.5 169.87C205.953 170.011 205.345 170.082 204.676 170.082C202.757 170.082 201.299 169.467 200.303 168.236C199.556 167.313 199.183 166.249 199.183 165.043C199.183 164.169 199.393 163.331 199.812 162.531C200.311 161.579 200.994 160.846 201.863 160.333C202.591 159.909 203.45 159.696 204.441 159.696C204.803 159.696 205.13 159.726 205.423 159.784C205.721 159.843 206.141 159.972 206.683 160.172C206.956 160.275 207.139 160.326 207.232 160.326C207.325 160.326 207.403 160.285 207.466 160.202C207.535 160.114 207.576 159.945 207.591 159.696H207.862ZM213.765 168.888C213.077 169.42 212.645 169.728 212.469 169.811C212.205 169.933 211.924 169.994 211.626 169.994C211.163 169.994 210.779 169.835 210.477 169.518C210.179 169.201 210.03 168.783 210.03 168.266C210.03 167.938 210.103 167.655 210.25 167.416C210.45 167.084 210.796 166.771 211.29 166.478C211.788 166.185 212.613 165.829 213.765 165.409V165.145C213.765 164.477 213.658 164.018 213.443 163.768C213.233 163.519 212.925 163.395 212.52 163.395C212.212 163.395 211.968 163.478 211.788 163.644C211.602 163.81 211.509 164 211.509 164.215L211.524 164.64C211.524 164.865 211.465 165.038 211.348 165.16C211.236 165.282 211.087 165.343 210.901 165.343C210.721 165.343 210.572 165.28 210.455 165.153C210.342 165.026 210.286 164.852 210.286 164.633C210.286 164.213 210.501 163.827 210.931 163.476C211.36 163.124 211.963 162.948 212.74 162.948C213.335 162.948 213.824 163.048 214.205 163.248C214.493 163.4 214.705 163.637 214.842 163.959C214.93 164.169 214.974 164.599 214.974 165.248V167.526C214.974 168.165 214.986 168.559 215.01 168.705C215.035 168.847 215.074 168.942 215.127 168.991C215.186 169.039 215.252 169.064 215.325 169.064C215.403 169.064 215.472 169.047 215.53 169.013C215.633 168.949 215.831 168.771 216.124 168.478V168.888C215.577 169.621 215.054 169.987 214.556 169.987C214.317 169.987 214.126 169.904 213.985 169.738C213.843 169.572 213.77 169.289 213.765 168.888ZM213.765 168.412V165.856C213.028 166.149 212.552 166.356 212.337 166.478C211.951 166.693 211.675 166.918 211.509 167.152C211.343 167.387 211.26 167.643 211.26 167.921C211.26 168.273 211.365 168.566 211.575 168.8C211.785 169.03 212.027 169.144 212.3 169.144C212.671 169.144 213.16 168.9 213.765 168.412ZM218.621 164.376C219.109 163.888 219.397 163.607 219.485 163.534C219.705 163.349 219.942 163.205 220.196 163.102C220.45 162.999 220.701 162.948 220.95 162.948C221.37 162.948 221.731 163.07 222.034 163.314C222.337 163.559 222.54 163.913 222.642 164.376C223.145 163.79 223.57 163.407 223.917 163.227C224.263 163.041 224.62 162.948 224.986 162.948C225.342 162.948 225.657 163.041 225.931 163.227C226.209 163.407 226.429 163.705 226.59 164.12C226.697 164.403 226.751 164.848 226.751 165.453V168.339C226.751 168.759 226.783 169.047 226.846 169.203C226.895 169.31 226.985 169.403 227.117 169.481C227.249 169.555 227.464 169.591 227.762 169.591V169.855H224.451V169.591H224.59C224.878 169.591 225.103 169.535 225.264 169.423C225.376 169.345 225.457 169.22 225.506 169.049C225.525 168.966 225.535 168.729 225.535 168.339V165.453C225.535 164.906 225.469 164.52 225.337 164.296C225.147 163.983 224.842 163.827 224.422 163.827C224.163 163.827 223.902 163.893 223.638 164.025C223.379 164.152 223.064 164.391 222.693 164.743L222.679 164.823L222.693 165.138V168.339C222.693 168.798 222.718 169.083 222.767 169.196C222.82 169.308 222.918 169.403 223.06 169.481C223.201 169.555 223.443 169.591 223.785 169.591V169.855H220.394V169.591C220.765 169.591 221.019 169.547 221.155 169.459C221.297 169.372 221.395 169.24 221.448 169.064C221.473 168.981 221.485 168.739 221.485 168.339V165.453C221.485 164.906 221.404 164.513 221.243 164.274C221.028 163.961 220.728 163.805 220.342 163.805C220.079 163.805 219.817 163.876 219.559 164.018C219.153 164.232 218.841 164.474 218.621 164.743V168.339C218.621 168.778 218.65 169.064 218.709 169.196C218.772 169.328 218.863 169.428 218.98 169.496C219.102 169.56 219.346 169.591 219.712 169.591V169.855H216.395V169.591C216.702 169.591 216.917 169.56 217.039 169.496C217.161 169.428 217.254 169.323 217.317 169.181C217.381 169.035 217.413 168.754 217.413 168.339V165.775C217.413 165.038 217.391 164.562 217.347 164.347C217.312 164.186 217.259 164.076 217.186 164.018C217.112 163.954 217.012 163.922 216.885 163.922C216.749 163.922 216.585 163.959 216.395 164.032L216.285 163.768L218.306 162.948H218.621V164.376ZM229.432 165.673C229.427 166.669 229.668 167.45 230.157 168.017C230.645 168.583 231.219 168.866 231.878 168.866C232.317 168.866 232.698 168.747 233.021 168.507C233.348 168.263 233.621 167.848 233.841 167.262L234.068 167.409C233.965 168.078 233.667 168.688 233.174 169.24C232.681 169.787 232.063 170.06 231.321 170.06C230.516 170.06 229.825 169.747 229.249 169.122C228.677 168.493 228.392 167.648 228.392 166.588C228.392 165.441 228.685 164.547 229.271 163.908C229.861 163.263 230.601 162.941 231.49 162.941C232.242 162.941 232.859 163.19 233.343 163.688C233.826 164.181 234.068 164.843 234.068 165.673H229.432ZM229.432 165.248H232.537C232.513 164.818 232.461 164.516 232.383 164.34C232.261 164.066 232.078 163.852 231.834 163.695C231.595 163.539 231.343 163.461 231.08 163.461C230.674 163.461 230.311 163.62 229.988 163.937C229.671 164.249 229.485 164.686 229.432 165.248ZM239.305 162.948V165.233H239.063C238.877 164.516 238.638 164.027 238.345 163.768C238.057 163.51 237.688 163.38 237.239 163.38C236.897 163.38 236.622 163.471 236.412 163.651C236.202 163.832 236.097 164.032 236.097 164.252C236.097 164.525 236.175 164.76 236.331 164.955C236.482 165.155 236.79 165.368 237.254 165.592L238.323 166.112C239.314 166.596 239.81 167.233 239.81 168.024C239.81 168.634 239.578 169.127 239.114 169.503C238.655 169.874 238.14 170.06 237.569 170.06C237.159 170.06 236.69 169.987 236.163 169.84C236.001 169.791 235.87 169.767 235.767 169.767C235.655 169.767 235.567 169.831 235.503 169.957H235.262V167.562H235.503C235.64 168.246 235.901 168.761 236.287 169.108C236.673 169.455 237.105 169.628 237.583 169.628C237.92 169.628 238.194 169.53 238.404 169.335C238.619 169.135 238.726 168.895 238.726 168.617C238.726 168.28 238.606 167.997 238.367 167.768C238.133 167.538 237.662 167.247 236.954 166.896C236.246 166.544 235.782 166.227 235.562 165.944C235.342 165.665 235.232 165.314 235.232 164.889C235.232 164.337 235.42 163.876 235.796 163.505C236.177 163.134 236.668 162.948 237.269 162.948C237.532 162.948 237.852 163.004 238.228 163.117C238.477 163.19 238.643 163.227 238.726 163.227C238.804 163.227 238.865 163.209 238.909 163.175C238.953 163.141 239.004 163.065 239.063 162.948H239.305Z"
    fill="black" />
  <rect x="116" y="171.744" width="50.5709" height="0.690846" fill="#D2D2D2" />
  <path
    d="M129.862 159.696L130.118 162.831H129.862C129.603 162.05 129.269 161.461 128.858 161.066C128.268 160.495 127.508 160.209 126.581 160.209C125.316 160.209 124.354 160.709 123.695 161.71C123.143 162.555 122.867 163.561 122.867 164.728C122.867 165.675 123.05 166.539 123.417 167.321C123.783 168.102 124.261 168.676 124.852 169.042C125.448 169.403 126.058 169.584 126.683 169.584C127.049 169.584 127.403 169.538 127.745 169.445C128.087 169.352 128.417 169.215 128.734 169.035V166.164C128.734 165.665 128.695 165.341 128.617 165.189C128.543 165.033 128.426 164.916 128.265 164.838C128.109 164.755 127.831 164.713 127.43 164.713V164.435H131.275V164.713H131.092C130.711 164.713 130.45 164.84 130.309 165.094C130.211 165.275 130.162 165.631 130.162 166.164V169.203C129.601 169.506 129.046 169.728 128.5 169.87C127.953 170.011 127.345 170.082 126.676 170.082C124.757 170.082 123.299 169.467 122.303 168.236C121.556 167.313 121.183 166.249 121.183 165.043C121.183 164.169 121.393 163.331 121.812 162.531C122.311 161.579 122.994 160.846 123.863 160.333C124.591 159.909 125.45 159.696 126.441 159.696C126.803 159.696 127.13 159.726 127.423 159.784C127.721 159.843 128.141 159.972 128.683 160.172C128.956 160.275 129.139 160.326 129.232 160.326C129.325 160.326 129.403 160.285 129.466 160.202C129.535 160.114 129.576 159.945 129.591 159.696H129.862ZM135.765 168.888C135.077 169.42 134.645 169.728 134.469 169.811C134.205 169.933 133.924 169.994 133.626 169.994C133.163 169.994 132.779 169.835 132.477 169.518C132.179 169.201 132.03 168.783 132.03 168.266C132.03 167.938 132.103 167.655 132.25 167.416C132.45 167.084 132.796 166.771 133.29 166.478C133.788 166.185 134.613 165.829 135.765 165.409V165.145C135.765 164.477 135.658 164.018 135.443 163.768C135.233 163.519 134.925 163.395 134.52 163.395C134.212 163.395 133.968 163.478 133.788 163.644C133.602 163.81 133.509 164 133.509 164.215L133.524 164.64C133.524 164.865 133.465 165.038 133.348 165.16C133.236 165.282 133.087 165.343 132.901 165.343C132.721 165.343 132.572 165.28 132.455 165.153C132.342 165.026 132.286 164.852 132.286 164.633C132.286 164.213 132.501 163.827 132.931 163.476C133.36 163.124 133.963 162.948 134.74 162.948C135.335 162.948 135.824 163.048 136.205 163.248C136.493 163.4 136.705 163.637 136.842 163.959C136.93 164.169 136.974 164.599 136.974 165.248V167.526C136.974 168.165 136.986 168.559 137.01 168.705C137.035 168.847 137.074 168.942 137.127 168.991C137.186 169.039 137.252 169.064 137.325 169.064C137.403 169.064 137.472 169.047 137.53 169.013C137.633 168.949 137.831 168.771 138.124 168.478V168.888C137.577 169.621 137.054 169.987 136.556 169.987C136.317 169.987 136.126 169.904 135.985 169.738C135.843 169.572 135.77 169.289 135.765 168.888ZM135.765 168.412V165.856C135.028 166.149 134.552 166.356 134.337 166.478C133.951 166.693 133.675 166.918 133.509 167.152C133.343 167.387 133.26 167.643 133.26 167.921C133.26 168.273 133.365 168.566 133.575 168.8C133.785 169.03 134.027 169.144 134.3 169.144C134.671 169.144 135.16 168.9 135.765 168.412ZM140.621 164.376C141.109 163.888 141.397 163.607 141.485 163.534C141.705 163.349 141.942 163.205 142.196 163.102C142.45 162.999 142.701 162.948 142.95 162.948C143.37 162.948 143.731 163.07 144.034 163.314C144.337 163.559 144.54 163.913 144.642 164.376C145.145 163.79 145.57 163.407 145.917 163.227C146.263 163.041 146.62 162.948 146.986 162.948C147.342 162.948 147.657 163.041 147.931 163.227C148.209 163.407 148.429 163.705 148.59 164.12C148.697 164.403 148.751 164.848 148.751 165.453V168.339C148.751 168.759 148.783 169.047 148.846 169.203C148.895 169.31 148.985 169.403 149.117 169.481C149.249 169.555 149.464 169.591 149.762 169.591V169.855H146.451V169.591H146.59C146.878 169.591 147.103 169.535 147.264 169.423C147.376 169.345 147.457 169.22 147.506 169.049C147.525 168.966 147.535 168.729 147.535 168.339V165.453C147.535 164.906 147.469 164.52 147.337 164.296C147.147 163.983 146.842 163.827 146.422 163.827C146.163 163.827 145.902 163.893 145.638 164.025C145.379 164.152 145.064 164.391 144.693 164.743L144.679 164.823L144.693 165.138V168.339C144.693 168.798 144.718 169.083 144.767 169.196C144.82 169.308 144.918 169.403 145.06 169.481C145.201 169.555 145.443 169.591 145.785 169.591V169.855H142.394V169.591C142.765 169.591 143.019 169.547 143.155 169.459C143.297 169.372 143.395 169.24 143.448 169.064C143.473 168.981 143.485 168.739 143.485 168.339V165.453C143.485 164.906 143.404 164.513 143.243 164.274C143.028 163.961 142.728 163.805 142.342 163.805C142.079 163.805 141.817 163.876 141.559 164.018C141.153 164.232 140.841 164.474 140.621 164.743V168.339C140.621 168.778 140.65 169.064 140.709 169.196C140.772 169.328 140.863 169.428 140.98 169.496C141.102 169.56 141.346 169.591 141.712 169.591V169.855H138.395V169.591C138.702 169.591 138.917 169.56 139.039 169.496C139.161 169.428 139.254 169.323 139.317 169.181C139.381 169.035 139.413 168.754 139.413 168.339V165.775C139.413 165.038 139.391 164.562 139.347 164.347C139.312 164.186 139.259 164.076 139.186 164.018C139.112 163.954 139.012 163.922 138.885 163.922C138.749 163.922 138.585 163.959 138.395 164.032L138.285 163.768L140.306 162.948H140.621V164.376ZM151.432 165.673C151.427 166.669 151.668 167.45 152.157 168.017C152.645 168.583 153.219 168.866 153.878 168.866C154.317 168.866 154.698 168.747 155.021 168.507C155.348 168.263 155.621 167.848 155.841 167.262L156.068 167.409C155.965 168.078 155.667 168.688 155.174 169.24C154.681 169.787 154.063 170.06 153.321 170.06C152.516 170.06 151.825 169.747 151.249 169.122C150.677 168.493 150.392 167.648 150.392 166.588C150.392 165.441 150.685 164.547 151.271 163.908C151.861 163.263 152.601 162.941 153.49 162.941C154.242 162.941 154.859 163.19 155.343 163.688C155.826 164.181 156.068 164.843 156.068 165.673H151.432ZM151.432 165.248H154.537C154.513 164.818 154.461 164.516 154.383 164.34C154.261 164.066 154.078 163.852 153.834 163.695C153.595 163.539 153.343 163.461 153.08 163.461C152.674 163.461 152.311 163.62 151.988 163.937C151.671 164.249 151.485 164.686 151.432 165.248ZM161.305 162.948V165.233H161.063C160.877 164.516 160.638 164.027 160.345 163.768C160.057 163.51 159.688 163.38 159.239 163.38C158.897 163.38 158.622 163.471 158.412 163.651C158.202 163.832 158.097 164.032 158.097 164.252C158.097 164.525 158.175 164.76 158.331 164.955C158.482 165.155 158.79 165.368 159.254 165.592L160.323 166.112C161.314 166.596 161.81 167.233 161.81 168.024C161.81 168.634 161.578 169.127 161.114 169.503C160.655 169.874 160.14 170.06 159.569 170.06C159.159 170.06 158.69 169.987 158.163 169.84C158.001 169.791 157.87 169.767 157.767 169.767C157.655 169.767 157.567 169.831 157.503 169.957H157.262V167.562H157.503C157.64 168.246 157.901 168.761 158.287 169.108C158.673 169.455 159.105 169.628 159.583 169.628C159.92 169.628 160.194 169.53 160.404 169.335C160.619 169.135 160.726 168.895 160.726 168.617C160.726 168.28 160.606 167.997 160.367 167.768C160.133 167.538 159.662 167.247 158.954 166.896C158.246 166.544 157.782 166.227 157.562 165.944C157.342 165.665 157.232 165.314 157.232 164.889C157.232 164.337 157.42 163.876 157.796 163.505C158.177 163.134 158.668 162.948 159.269 162.948C159.532 162.948 159.852 163.004 160.228 163.117C160.477 163.19 160.643 163.227 160.726 163.227C160.804 163.227 160.865 163.209 160.909 163.175C160.953 163.141 161.004 163.065 161.063 162.948H161.305Z"
    fill="black" />
  <rect x="38" y="171.744" width="50.5709" height="0.690846" fill="#D2D2D2" />
  <path
    d="M51.8618 159.696L52.1182 162.831H51.8618C51.603 162.05 51.2686 161.461 50.8584 161.066C50.2676 160.495 49.5083 160.209 48.5806 160.209C47.3159 160.209 46.354 160.709 45.6948 161.71C45.1431 162.555 44.8672 163.561 44.8672 164.728C44.8672 165.675 45.0503 166.539 45.4165 167.321C45.7827 168.102 46.2612 168.676 46.8521 169.042C47.4478 169.403 48.0581 169.584 48.6831 169.584C49.0493 169.584 49.4033 169.538 49.7451 169.445C50.0869 169.352 50.4165 169.215 50.7339 169.035V166.164C50.7339 165.665 50.6948 165.341 50.6167 165.189C50.5435 165.033 50.4263 164.916 50.2651 164.838C50.1089 164.755 49.8306 164.713 49.4302 164.713V164.435H53.2754V164.713H53.0923C52.7114 164.713 52.4502 164.84 52.3086 165.094C52.2109 165.275 52.1621 165.631 52.1621 166.164V169.203C51.6006 169.506 51.0464 169.728 50.4995 169.87C49.9526 170.011 49.3447 170.082 48.6758 170.082C46.7568 170.082 45.2993 169.467 44.3032 168.236C43.5562 167.313 43.1826 166.249 43.1826 165.043C43.1826 164.169 43.3926 163.331 43.8125 162.531C44.3105 161.579 44.9941 160.846 45.8633 160.333C46.5908 159.909 47.4502 159.696 48.4414 159.696C48.8027 159.696 49.1299 159.726 49.4229 159.784C49.7207 159.843 50.1406 159.972 50.6826 160.172C50.9561 160.275 51.1392 160.326 51.2319 160.326C51.3247 160.326 51.4028 160.285 51.4663 160.202C51.5347 160.114 51.5762 159.945 51.5908 159.696H51.8618ZM57.7651 168.888C57.0767 169.42 56.6445 169.728 56.4688 169.811C56.2051 169.933 55.9243 169.994 55.6265 169.994C55.1626 169.994 54.7793 169.835 54.4766 169.518C54.1787 169.201 54.0298 168.783 54.0298 168.266C54.0298 167.938 54.103 167.655 54.2495 167.416C54.4497 167.084 54.7964 166.771 55.2896 166.478C55.7876 166.185 56.6128 165.829 57.7651 165.409V165.145C57.7651 164.477 57.6577 164.018 57.4429 163.768C57.2329 163.519 56.9253 163.395 56.52 163.395C56.2124 163.395 55.9683 163.478 55.7876 163.644C55.6021 163.81 55.5093 164 55.5093 164.215L55.5239 164.64C55.5239 164.865 55.4653 165.038 55.3481 165.16C55.2358 165.282 55.0869 165.343 54.9014 165.343C54.7207 165.343 54.5718 165.28 54.4546 165.153C54.3423 165.026 54.2861 164.852 54.2861 164.633C54.2861 164.213 54.501 163.827 54.9307 163.476C55.3604 163.124 55.9634 162.948 56.7397 162.948C57.3354 162.948 57.8237 163.048 58.2046 163.248C58.4927 163.4 58.7051 163.637 58.8418 163.959C58.9297 164.169 58.9736 164.599 58.9736 165.248V167.526C58.9736 168.165 58.9858 168.559 59.0103 168.705C59.0347 168.847 59.0737 168.942 59.1274 168.991C59.186 169.039 59.252 169.064 59.3252 169.064C59.4033 169.064 59.4717 169.047 59.5303 169.013C59.6328 168.949 59.8306 168.771 60.1235 168.478V168.888C59.5767 169.621 59.0542 169.987 58.5562 169.987C58.3169 169.987 58.1265 169.904 57.9849 169.738C57.8433 169.572 57.77 169.289 57.7651 168.888ZM57.7651 168.412V165.856C57.0278 166.149 56.5518 166.356 56.3369 166.478C55.9512 166.693 55.6753 166.918 55.5093 167.152C55.3433 167.387 55.2603 167.643 55.2603 167.921C55.2603 168.273 55.3652 168.566 55.5752 168.8C55.7852 169.03 56.0269 169.144 56.3003 169.144C56.6714 169.144 57.1597 168.9 57.7651 168.412ZM62.6211 164.376C63.1094 163.888 63.3975 163.607 63.4854 163.534C63.7051 163.349 63.9419 163.205 64.1958 163.102C64.4497 162.999 64.7012 162.948 64.9502 162.948C65.3701 162.948 65.7314 163.07 66.0342 163.314C66.3369 163.559 66.5396 163.913 66.6421 164.376C67.145 163.79 67.5698 163.407 67.9165 163.227C68.2632 163.041 68.6196 162.948 68.9858 162.948C69.3423 162.948 69.6572 163.041 69.9307 163.227C70.209 163.407 70.4287 163.705 70.5898 164.12C70.6973 164.403 70.751 164.848 70.751 165.453V168.339C70.751 168.759 70.7827 169.047 70.8462 169.203C70.895 169.31 70.9854 169.403 71.1172 169.481C71.249 169.555 71.4639 169.591 71.7617 169.591V169.855H68.4512V169.591H68.5903C68.8784 169.591 69.103 169.535 69.2642 169.423C69.3765 169.345 69.457 169.22 69.5059 169.049C69.5254 168.966 69.5352 168.729 69.5352 168.339V165.453C69.5352 164.906 69.4692 164.52 69.3374 164.296C69.147 163.983 68.8418 163.827 68.4219 163.827C68.1631 163.827 67.9019 163.893 67.6382 164.025C67.3794 164.152 67.0645 164.391 66.6934 164.743L66.6787 164.823L66.6934 165.138V168.339C66.6934 168.798 66.7178 169.083 66.7666 169.196C66.8203 169.308 66.918 169.403 67.0596 169.481C67.2012 169.555 67.4429 169.591 67.7847 169.591V169.855H64.3936V169.591C64.7646 169.591 65.0186 169.547 65.1553 169.459C65.2969 169.372 65.3945 169.24 65.4482 169.064C65.4727 168.981 65.4849 168.739 65.4849 168.339V165.453C65.4849 164.906 65.4043 164.513 65.2432 164.274C65.0283 163.961 64.728 163.805 64.3423 163.805C64.0786 163.805 63.8174 163.876 63.5586 164.018C63.1533 164.232 62.8408 164.474 62.6211 164.743V168.339C62.6211 168.778 62.6504 169.064 62.709 169.196C62.7725 169.328 62.8628 169.428 62.98 169.496C63.1021 169.56 63.3462 169.591 63.7124 169.591V169.855H60.3945V169.591C60.7021 169.591 60.917 169.56 61.0391 169.496C61.1611 169.428 61.2539 169.323 61.3174 169.181C61.3809 169.035 61.4126 168.754 61.4126 168.339V165.775C61.4126 165.038 61.3906 164.562 61.3467 164.347C61.3125 164.186 61.2588 164.076 61.1855 164.018C61.1123 163.954 61.0122 163.922 60.8853 163.922C60.7485 163.922 60.585 163.959 60.3945 164.032L60.2847 163.768L62.3062 162.948H62.6211V164.376ZM73.4316 165.673C73.4268 166.669 73.6685 167.45 74.1567 168.017C74.645 168.583 75.2188 168.866 75.8779 168.866C76.3174 168.866 76.6982 168.747 77.0205 168.507C77.3477 168.263 77.6211 167.848 77.8408 167.262L78.0679 167.409C77.9653 168.078 77.6675 168.688 77.1743 169.24C76.6812 169.787 76.0635 170.06 75.3213 170.06C74.5156 170.06 73.8247 169.747 73.2485 169.122C72.6772 168.493 72.3916 167.648 72.3916 166.588C72.3916 165.441 72.6846 164.547 73.2705 163.908C73.8613 163.263 74.6011 162.941 75.4897 162.941C76.2417 162.941 76.8594 163.19 77.3428 163.688C77.8262 164.181 78.0679 164.843 78.0679 165.673H73.4316ZM73.4316 165.248H76.5371C76.5127 164.818 76.4614 164.516 76.3833 164.34C76.2612 164.066 76.0781 163.852 75.834 163.695C75.5947 163.539 75.3433 163.461 75.0796 163.461C74.6743 163.461 74.3105 163.62 73.9883 163.937C73.6709 164.249 73.4854 164.686 73.4316 165.248ZM83.3047 162.948V165.233H83.063C82.8774 164.516 82.6382 164.027 82.3452 163.768C82.0571 163.51 81.6885 163.38 81.2393 163.38C80.8975 163.38 80.6216 163.471 80.4116 163.651C80.2017 163.832 80.0967 164.032 80.0967 164.252C80.0967 164.525 80.1748 164.76 80.3311 164.955C80.4824 165.155 80.79 165.368 81.2539 165.592L82.3232 166.112C83.3145 166.596 83.8101 167.233 83.8101 168.024C83.8101 168.634 83.5781 169.127 83.1143 169.503C82.6553 169.874 82.1401 170.06 81.5688 170.06C81.1587 170.06 80.6899 169.987 80.1626 169.84C80.0015 169.791 79.8696 169.767 79.7671 169.767C79.6548 169.767 79.5669 169.831 79.5034 169.957H79.2617V167.562H79.5034C79.6401 168.246 79.9014 168.761 80.2871 169.108C80.6729 169.455 81.105 169.628 81.5835 169.628C81.9204 169.628 82.1938 169.53 82.4038 169.335C82.6187 169.135 82.7261 168.895 82.7261 168.617C82.7261 168.28 82.6064 167.997 82.3672 167.768C82.1328 167.538 81.6616 167.247 80.9536 166.896C80.2456 166.544 79.7817 166.227 79.562 165.944C79.3423 165.665 79.2324 165.314 79.2324 164.889C79.2324 164.337 79.4204 163.876 79.7964 163.505C80.1772 163.134 80.668 162.948 81.2686 162.948C81.5322 162.948 81.8521 163.004 82.228 163.117C82.4771 163.19 82.6431 163.227 82.7261 163.227C82.8042 163.227 82.8652 163.209 82.9092 163.175C82.9531 163.141 83.0044 163.065 83.063 162.948H83.3047Z"
    fill="black" />
  <path d="M0 0H360V39.7927H0V0Z" fill="#5A899C" />
  <path
    d="M25.3071 20.4482C25.9565 19.5449 26.6572 19.0933 27.4092 19.0933C28.0977 19.0933 28.6982 19.3887 29.2109 19.9795C29.7236 20.5654 29.98 21.3687 29.98 22.3892C29.98 23.5806 29.5845 24.54 28.7935 25.2676C28.1147 25.8926 27.3579 26.2051 26.5229 26.2051C26.1323 26.2051 25.7344 26.1343 25.3291 25.9927C24.9287 25.8511 24.5186 25.6387 24.0986 25.3555V18.4048C24.0986 17.6431 24.0791 17.1743 24.04 16.9985C24.0059 16.8228 23.9497 16.7031 23.8716 16.6396C23.7935 16.5762 23.6958 16.5444 23.5786 16.5444C23.4419 16.5444 23.271 16.5835 23.0659 16.6616L22.9634 16.4053L24.9775 15.585H25.3071V20.4482ZM25.3071 20.917V24.9307C25.5562 25.1748 25.8125 25.3604 26.0762 25.4873C26.3447 25.6094 26.6182 25.6704 26.8965 25.6704C27.3408 25.6704 27.7534 25.4263 28.1343 24.938C28.52 24.4497 28.7129 23.7393 28.7129 22.8066C28.7129 21.9473 28.52 21.2881 28.1343 20.8291C27.7534 20.3652 27.3188 20.1333 26.8306 20.1333C26.5718 20.1333 26.313 20.1992 26.0542 20.3311C25.8589 20.4287 25.6099 20.624 25.3071 20.917ZM34.77 25.0332C34.0815 25.5654 33.6494 25.873 33.4736 25.9561C33.21 26.0781 32.9292 26.1392 32.6313 26.1392C32.1675 26.1392 31.7842 25.9805 31.4814 25.6631C31.1836 25.3457 31.0347 24.9282 31.0347 24.4106C31.0347 24.0835 31.1079 23.8003 31.2544 23.561C31.4546 23.229 31.8013 22.9165 32.2944 22.6235C32.7925 22.3306 33.6177 21.9741 34.77 21.5542V21.2905C34.77 20.6216 34.6626 20.1626 34.4478 19.9136C34.2378 19.6646 33.9302 19.54 33.5249 19.54C33.2173 19.54 32.9731 19.623 32.7925 19.7891C32.6069 19.9551 32.5142 20.1455 32.5142 20.3604L32.5288 20.7852C32.5288 21.0098 32.4702 21.1831 32.353 21.3052C32.2407 21.4272 32.0918 21.4883 31.9062 21.4883C31.7256 21.4883 31.5767 21.4248 31.4595 21.2979C31.3472 21.1709 31.291 20.9976 31.291 20.7778C31.291 20.3579 31.5059 19.9722 31.9355 19.6206C32.3652 19.269 32.9683 19.0933 33.7446 19.0933C34.3403 19.0933 34.8286 19.1934 35.2095 19.3936C35.4976 19.5449 35.71 19.7817 35.8467 20.104C35.9346 20.314 35.9785 20.7437 35.9785 21.3931V23.6709C35.9785 24.3105 35.9907 24.7036 36.0151 24.8501C36.0396 24.9917 36.0786 25.0869 36.1323 25.1357C36.1909 25.1846 36.2568 25.209 36.3301 25.209C36.4082 25.209 36.4766 25.1919 36.5352 25.1577C36.6377 25.0942 36.8354 24.916 37.1284 24.623V25.0332C36.5815 25.7656 36.0591 26.1318 35.561 26.1318C35.3218 26.1318 35.1313 26.0488 34.9897 25.8828C34.8481 25.7168 34.7749 25.4336 34.77 25.0332ZM34.77 24.5571V22.001C34.0327 22.2939 33.5566 22.5015 33.3418 22.6235C32.9561 22.8384 32.6802 23.063 32.5142 23.2974C32.3481 23.5317 32.2651 23.7881 32.2651 24.0664C32.2651 24.418 32.3701 24.7109 32.5801 24.9453C32.79 25.1748 33.0317 25.2896 33.3052 25.2896C33.6763 25.2896 34.1646 25.0454 34.77 24.5571ZM43.332 23.4512C43.1514 24.335 42.7974 25.0161 42.27 25.4946C41.7427 25.9683 41.1592 26.2051 40.5195 26.2051C39.7578 26.2051 39.0938 25.8853 38.5273 25.2456C37.9609 24.606 37.6777 23.7417 37.6777 22.6528C37.6777 21.5981 37.9902 20.7412 38.6152 20.082C39.2451 19.4229 39.9995 19.0933 40.8784 19.0933C41.5376 19.0933 42.0796 19.269 42.5044 19.6206C42.9292 19.9673 43.1416 20.3286 43.1416 20.7046C43.1416 20.8901 43.0806 21.0415 42.9585 21.1587C42.8413 21.271 42.6753 21.3271 42.4604 21.3271C42.1724 21.3271 41.9551 21.2344 41.8086 21.0488C41.7256 20.9463 41.6694 20.751 41.6401 20.4629C41.6157 20.1748 41.5181 19.9551 41.3472 19.8037C41.1763 19.6572 40.9395 19.584 40.6367 19.584C40.1484 19.584 39.7554 19.7646 39.4575 20.126C39.062 20.6045 38.8643 21.2368 38.8643 22.0229C38.8643 22.8237 39.0596 23.5317 39.4502 24.147C39.8457 24.7573 40.3779 25.0625 41.0469 25.0625C41.5254 25.0625 41.9551 24.8989 42.3359 24.5718C42.6045 24.3472 42.8657 23.9395 43.1196 23.3486L43.332 23.4512ZM46.2837 15.585V22.2573L47.9902 20.7046C48.3516 20.3726 48.5615 20.1626 48.6201 20.0747C48.6592 20.0161 48.6787 19.9575 48.6787 19.8989C48.6787 19.8013 48.6372 19.7183 48.5542 19.6499C48.4761 19.5767 48.3442 19.5352 48.1587 19.5254V19.291H51.0737V19.5254C50.6733 19.5352 50.3389 19.5962 50.0703 19.7085C49.8066 19.8208 49.5161 20.021 49.1987 20.3091L47.4775 21.8984L49.1987 24.0737C49.6772 24.6743 49.9995 25.0552 50.1655 25.2163C50.3999 25.4458 50.605 25.5947 50.7808 25.6631C50.9028 25.7119 51.1152 25.7363 51.418 25.7363V26H48.1587V25.7363C48.3442 25.7314 48.4688 25.7046 48.5322 25.6558C48.6006 25.6021 48.6348 25.5288 48.6348 25.436C48.6348 25.3237 48.5371 25.1431 48.3418 24.894L46.2837 22.2646V24.4912C46.2837 24.9258 46.313 25.2114 46.3716 25.3481C46.4351 25.4849 46.5229 25.5825 46.6353 25.6411C46.7476 25.6997 46.9917 25.7314 47.3677 25.7363V26H43.9546V25.7363C44.2964 25.7363 44.5527 25.6948 44.7236 25.6118C44.8262 25.5581 44.9043 25.4751 44.958 25.3628C45.0312 25.2017 45.0679 24.9233 45.0679 24.5278V18.4194C45.0679 17.6431 45.0508 17.1694 45.0166 16.9985C44.9824 16.8228 44.9263 16.7031 44.8481 16.6396C44.77 16.5713 44.6675 16.5371 44.5405 16.5371C44.438 16.5371 44.2842 16.5786 44.0791 16.6616L43.9546 16.4053L45.9468 15.585H46.2837Z"
    fill="white" />
  <path
    d="M307.625 20.1562C308.146 19.6354 308.453 19.3359 308.547 19.2578C308.781 19.0599 309.034 18.9062 309.305 18.7969C309.576 18.6875 309.844 18.6328 310.109 18.6328C310.557 18.6328 310.943 18.763 311.266 19.0234C311.589 19.2839 311.805 19.6615 311.914 20.1562C312.451 19.5312 312.904 19.1224 313.273 18.9297C313.643 18.7318 314.023 18.6328 314.414 18.6328C314.794 18.6328 315.13 18.7318 315.422 18.9297C315.719 19.1224 315.953 19.4401 316.125 19.8828C316.24 20.1849 316.297 20.6589 316.297 21.3047V24.3828C316.297 24.8307 316.331 25.138 316.398 25.3047C316.451 25.4193 316.547 25.5182 316.688 25.6016C316.828 25.6797 317.057 25.7188 317.375 25.7188V26H313.844V25.7188H313.992C314.299 25.7188 314.539 25.6589 314.711 25.5391C314.831 25.4557 314.917 25.3229 314.969 25.1406C314.99 25.0521 315 24.7995 315 24.3828V21.3047C315 20.7214 314.93 20.3099 314.789 20.0703C314.586 19.737 314.26 19.5703 313.812 19.5703C313.536 19.5703 313.258 19.6406 312.977 19.7812C312.701 19.9167 312.365 20.1719 311.969 20.5469L311.953 20.6328L311.969 20.9688V24.3828C311.969 24.8724 311.995 25.1771 312.047 25.2969C312.104 25.4167 312.208 25.5182 312.359 25.6016C312.51 25.6797 312.768 25.7188 313.133 25.7188V26H309.516V25.7188C309.911 25.7188 310.182 25.6719 310.328 25.5781C310.479 25.4844 310.583 25.3438 310.641 25.1562C310.667 25.0677 310.68 24.8099 310.68 24.3828V21.3047C310.68 20.7214 310.594 20.3021 310.422 20.0469C310.193 19.7135 309.872 19.5469 309.461 19.5469C309.18 19.5469 308.901 19.6224 308.625 19.7734C308.193 20.0026 307.859 20.2604 307.625 20.5469V24.3828C307.625 24.8516 307.656 25.1562 307.719 25.2969C307.786 25.4375 307.883 25.5443 308.008 25.6172C308.138 25.6849 308.398 25.7188 308.789 25.7188V26H305.25V25.7188C305.578 25.7188 305.807 25.6849 305.938 25.6172C306.068 25.5443 306.167 25.4323 306.234 25.2812C306.302 25.125 306.336 24.8255 306.336 24.3828V21.6484C306.336 20.862 306.312 20.3542 306.266 20.125C306.229 19.9531 306.172 19.8359 306.094 19.7734C306.016 19.7057 305.909 19.6719 305.773 19.6719C305.628 19.6719 305.453 19.7109 305.25 19.7891L305.133 19.5078L307.289 18.6328H307.625V20.1562ZM319.156 21.5391C319.151 22.6016 319.409 23.4349 319.93 24.0391C320.451 24.6432 321.062 24.9453 321.766 24.9453C322.234 24.9453 322.641 24.8177 322.984 24.5625C323.333 24.3021 323.625 23.8594 323.859 23.2344L324.102 23.3906C323.992 24.1042 323.674 24.7552 323.148 25.3438C322.622 25.9271 321.964 26.2188 321.172 26.2188C320.312 26.2188 319.576 25.8854 318.961 25.2188C318.352 24.5469 318.047 23.6458 318.047 22.5156C318.047 21.2917 318.359 20.3385 318.984 19.6562C319.615 18.9688 320.404 18.625 321.352 18.625C322.154 18.625 322.812 18.8906 323.328 19.4219C323.844 19.9479 324.102 20.6536 324.102 21.5391H319.156ZM319.156 21.0859H322.469C322.443 20.6276 322.388 20.3047 322.305 20.1172C322.174 19.8255 321.979 19.5964 321.719 19.4297C321.464 19.263 321.195 19.1797 320.914 19.1797C320.482 19.1797 320.094 19.349 319.75 19.6875C319.411 20.0208 319.214 20.487 319.156 21.0859ZM327.148 20.1484C327.987 19.138 328.786 18.6328 329.547 18.6328C329.938 18.6328 330.273 18.7318 330.555 18.9297C330.836 19.1224 331.06 19.4427 331.227 19.8906C331.341 20.2031 331.398 20.6823 331.398 21.3281V24.3828C331.398 24.8359 331.435 25.1432 331.508 25.3047C331.565 25.4349 331.656 25.5365 331.781 25.6094C331.911 25.6823 332.148 25.7188 332.492 25.7188V26H328.953V25.7188H329.102C329.435 25.7188 329.667 25.6693 329.797 25.5703C329.932 25.4661 330.026 25.3151 330.078 25.1172C330.099 25.0391 330.109 24.7943 330.109 24.3828V21.4531C330.109 20.8021 330.023 20.3307 329.852 20.0391C329.685 19.7422 329.401 19.5938 329 19.5938C328.38 19.5938 327.763 19.9323 327.148 20.6094V24.3828C327.148 24.8672 327.177 25.1667 327.234 25.2812C327.307 25.4323 327.406 25.5443 327.531 25.6172C327.661 25.6849 327.922 25.7188 328.312 25.7188V26H324.773V25.7188H324.93C325.294 25.7188 325.539 25.6276 325.664 25.4453C325.794 25.2578 325.859 24.9036 325.859 24.3828V21.7266C325.859 20.8672 325.839 20.3438 325.797 20.1562C325.76 19.9688 325.701 19.8411 325.617 19.7734C325.539 19.7057 325.432 19.6719 325.297 19.6719C325.151 19.6719 324.977 19.7109 324.773 19.7891L324.656 19.5078L326.812 18.6328H327.148V20.1484ZM339.336 18.8438V23.1797C339.336 24.0078 339.354 24.5156 339.391 24.7031C339.432 24.8854 339.495 25.013 339.578 25.0859C339.667 25.1589 339.768 25.1953 339.883 25.1953C340.044 25.1953 340.227 25.151 340.43 25.0625L340.539 25.3359L338.398 26.2188H338.047V24.7031C337.432 25.3698 336.964 25.7891 336.641 25.9609C336.318 26.1328 335.977 26.2188 335.617 26.2188C335.216 26.2188 334.867 26.1042 334.57 25.875C334.279 25.6406 334.076 25.3411 333.961 24.9766C333.846 24.612 333.789 24.0964 333.789 23.4297V20.2344C333.789 19.8958 333.753 19.6615 333.68 19.5312C333.607 19.401 333.497 19.3021 333.352 19.2344C333.211 19.1615 332.953 19.1276 332.578 19.1328V18.8438H335.086V23.6328C335.086 24.2995 335.201 24.737 335.43 24.9453C335.664 25.1536 335.945 25.2578 336.273 25.2578C336.497 25.2578 336.75 25.1875 337.031 25.0469C337.318 24.9062 337.656 24.638 338.047 24.2422V20.1875C338.047 19.7812 337.971 19.5078 337.82 19.3672C337.674 19.2214 337.367 19.1432 336.898 19.1328V18.8438H339.336Z"
    fill="white" />
</svg>